<svg version="1.1" viewBox="0.0 0.0 574.3359580052494 562.8897637795276" fill="none" stroke="none" stroke-linecap="square" stroke-miterlimit="10" xmlns:xlink="http://www.w3.org/1999/xlink" xmlns="http://www.w3.org/2000/svg"><clipPath id="p.0"><clipPath id="p.logo-shell"><path d="m5.0648565 94.00267c0 -51.671913 41.88836 -93.56027 93.56027 -93.56027l381.21866 0c24.81372 0 48.611176 9.857214 66.157135 27.403168c17.545898 17.545954 27.403137 41.343376 27.403137 66.157104l0 374.22986c0 51.671906 -41.888367 93.56027 -93.56027 93.56027l-381.21866 0c-51.671913 0 -93.56027 -41.888367 -93.56027 -93.56027z" clip-rule="evenodd"/></clipPath><path d="m0 0l574.33594 0l0 562.8898l-574.33594 0l0 -562.8898z" clip-rule="nonzero"/></clipPath><g clip-path="url(#p.0)"><path fill="#000000" fill-opacity="0.0" d="m0 0l574.33594 0l0 562.8898l-574.33594 0z" fill-rule="evenodd"/><path fill="#4472c4" d="m5.0648565 94.00267c0 -51.671913 41.88836 -93.56027 93.56027 -93.56027l381.21866 0c24.81372 0 48.611176 9.857214 66.157135 27.403168c17.545898 17.545954 27.403137 41.343376 27.403137 66.157104l0 374.22986c0 51.671906 -41.888367 93.56027 -93.56027 93.56027l-381.21866 0c-51.671913 0 -93.56027 -41.888367 -93.56027 -93.56027z" fill-rule="evenodd"/><path stroke="#31538f" stroke-width="1.3333333333333333" stroke-miterlimit="800.0" stroke-linecap="butt" d="m5.0648565 94.00267c0 -51.671913 41.88836 -93.56027 93.56027 -93.56027l381.21866 0c24.81372 0 48.611176 9.857214 66.157135 27.403168c17.545898 17.545954 27.403137 41.343376 27.403137 66.157104l0 374.22986c0 51.671906 -41.888367 93.56027 -93.56027 93.56027l-381.21866 0c-51.671913 0 -93.56027 -41.888367 -93.56027 -93.56027z" fill-rule="evenodd"/><path fill="#70ad47" clip-path="url(#p.logo-shell)" d="m5.015611 381.873l568.38837 0l0 179.96844l-568.38837 0z" fill-rule="evenodd"/><path fill="#ffffff" d="m276.3712 289.19672c0 -59.62024 48.933502 -107.951996 109.29602 -107.951996c28.987091 0 56.786957 11.373489 77.283936 31.618408c20.496979 20.244934 32.012054 47.70294 32.012054 76.33359c0 59.62024 -48.933502 107.951996 -109.29599 107.951996c-60.36252 0 -109.29602 -48.331757 -109.29602 -107.951996z" fill-rule="evenodd"/><path fill="#ffffff" d="m83.454956 289.19672c0 -59.62024 48.933487 -107.951996 109.29599 -107.951996c28.987106 0 56.786972 11.373489 77.283936 31.618408c20.496979 20.244934 32.012085 47.70294 32.012085 76.33359c0 59.62024 -48.933502 107.951996 -109.29602 107.951996c-60.362503 0 -109.29599 -48.331757 -109.29599 -107.951996z" fill-rule="evenodd"/><path fill="#ffffff" d="m182.68884 185.87126c0 -59.62024 48.933487 -107.951996 109.29599 -107.951996c28.987091 0 56.786957 11.373482 77.283936 31.618408c20.496979 20.244919 32.012054 47.70294 32.012054 76.33359c0 59.62024 -48.93347 107.95201 -109.29599 107.95201c-60.362503 0 -109.29599 -48.33177 -109.29599 -107.95201z" fill-rule="evenodd"/><path fill="#ffffff" d="m182.68884 376.41513c0 -59.62024 48.933487 -107.951996 109.29599 -107.951996c28.987091 0 56.786957 11.373474 77.283936 31.618408c20.496979 20.244934 32.012054 47.70294 32.012054 76.33359c0 59.62024 -48.93347 107.951996 -109.29599 107.951996c-60.362503 0 -109.29599 -48.331757 -109.29599 -107.951996z" fill-rule="evenodd"/><path fill="#000000" d="m203.65628 443.74152l39.149597 0l0 97.63782l-39.149597 0z" fill-rule="evenodd"/><path stroke="#31538f" stroke-width="1.3333333333333333" stroke-miterlimit="800.0" stroke-linecap="butt" d="m203.65628 443.74152l39.149597 0l0 97.63782l-39.149597 0z" fill-rule="evenodd"/><path fill="#000000" d="m342.04526 441.5387l39.149597 0l0 97.63776l-39.149597 0z" fill-rule="evenodd"/><path stroke="#31538f" stroke-width="1.3333333333333333" stroke-miterlimit="800.0" stroke-linecap="butt" d="m342.04526 441.5387l39.149597 0l0 97.63776l-39.149597 0z" fill-rule="evenodd"/><path fill="#ffffff" d="m274.44846 285.97925c42.680573 -42.680557 111.45499 -43.104996 153.612 -0.94799805c20.244507 20.244507 31.517883 47.80182 31.340088 76.60968c-0.17779541 28.80783 -11.792145 56.50638 -32.288086 77.00232c-42.680573 42.680573 -111.45499 43.10501 -153.612 0.94799805c-42.156998 -42.156982 -41.73256 -110.93143 0.94799805 -153.612z" fill-rule="evenodd"/><path fill="#ffffff" d="m139.71634 151.24713c42.680557 -42.680565 111.455 -43.105003 153.612 -0.94799805c20.244507 20.244507 31.517853 47.80182 31.340088 76.609665c-0.17779541 28.80783 -11.792175 56.506393 -32.288086 77.002335c-42.680573 42.680573 -111.455 43.10501 -153.61201 0.94799805c-42.15699 -42.157013 -41.73256 -110.93144 0.9480133 -153.612z" fill-rule="evenodd"/><path fill="#ffffff" d="m282.98895 146.5838c42.680573 -42.680573 111.45502 -43.105003 153.612 -0.94799805c20.244507 20.244492 31.517883 47.80182 31.340088 76.60965c-0.1777649 28.807846 -11.792145 56.50641 -32.288086 77.00235c-42.680573 42.680573 -111.45499 43.10498 -153.612 0.94799805c-42.156998 -42.157013 -41.73256 -110.93144 0.94799805 -153.612z" fill-rule="evenodd"/><path fill="#ffffff" d="m146.5836 282.98914c42.680573 -42.680557 111.455 -43.10498 153.61201 -0.94799805c20.244507 20.244507 31.517853 47.80185 31.340088 76.60968c-0.17779541 28.80783 -11.792175 56.50641 -32.288086 77.00232c-42.680573 42.680573 -111.45502 43.10501 -153.61201 0.94799805c-42.156998 -42.156982 -41.73256 -110.93143 0.94799805 -153.612z" fill-rule="evenodd"/><path fill="#000000" d="m198.27335 267.57648c-14.428146 -24.988113 -5.867981 -56.941986 19.119629 -71.37097l0 0c11.999481 -6.9290314 26.259888 -8.807419 39.644104 -5.2219086c13.384186 3.5855103 24.795807 12.341187 31.724457 24.340897l43.026672 74.517944c14.428131 24.988098 5.867981 56.941956 -19.119629 71.37094l0 0c-24.98764 14.428986 -56.940414 5.86911 -71.36856 -19.118988z" fill-rule="evenodd"/><path fill="#000000" d="m289.61987 215.32744c14.428131 -24.988113 46.38092 -33.547974 71.36853 -19.118988l0 0c11.999481 6.9290466 20.755127 18.341156 24.340729 31.7258c3.5856323 13.384659 1.70755 27.645447 -5.2210693 39.645157l-43.026672 74.517914c-14.428162 24.988129 -46.38095 33.547974 -71.36856 19.118988l0 0c-24.987625 -14.428955 -33.547775 -46.382843 -19.119644 -71.37094z" fill-rule="evenodd"/></g></svg>